<svg xmlns="http://www.w3.org/2000/svg" viewBox="0 0 200 200" role="img" aria-label="Americas">
  <defs>
    <linearGradient id="amOcean" x1="0%" y1="0%" x2="100%" y2="100%">
      <stop offset="0%" stop-color="#0b3a6e"/>
      <stop offset="55%" stop-color="#0a2860"/>
      <stop offset="100%" stop-color="#071840"/>
    </linearGradient>
    <linearGradient id="amLand" x1="20%" y1="0%" x2="80%" y2="100%">
      <stop offset="0%" stop-color="#d8e7f5"/>
      <stop offset="100%" stop-color="#9eb8d4"/>
    </linearGradient>
  </defs>
  <circle cx="100" cy="100" r="100" fill="url(#amOcean)"/>
  <!-- Stylized Western Hemisphere silhouette -->
  <path fill="url(#amLand)" d="
    M86 18c8-2 18 1 24 8 5 6 7 14 5 22-1 6-5 11-6 17-1 7 2 12 6 17 3 4 8 8 9 14 1 7-3 13-8 17-4 3-9 4-12 8-2 3-1 8 1 11 3 5 8 8 10 13 2 6 0 12-4 16-5 5-12 7-18 11-5 3-9 8-9 14 0 5 3 9 2 14-1 6-7 10-13 11-7 1-14-2-18-7-5-6-5-15-2-22 2-6 7-10 9-16 2-5 1-11-2-15-4-6-11-9-14-15-3-6-1-14 3-19 4-5 11-7 15-12 3-4 3-10 2-15-1-7 1-14 6-19 5-5 12-8 20-9z
    M118 108c6 1 12 5 15 11 3 5 3 12 1 18-2 6-7 11-8 17-1 5 1 10 4 14 3 5 8 8 9 14 1 7-3 13-8 17-6 5-15 5-21 2-7-4-10-12-10-20 0-6 3-11 4-17 1-5-1-11-4-15-4-5-10-7-13-12-2-4-1-10 2-14 4-5 11-7 17-8 4-1 8-1 12-1z
  "/>
  <circle cx="100" cy="100" r="97" fill="none" stroke="rgba(255,255,255,0.22)" stroke-width="2.5"/>
</svg>
